<?xml version="1.0" encoding="utf-8"?>
<!-- Generator: Adobe Illustrator 18.0.0, SVG Export Plug-In . SVG Version: 6.00 Build 0)  -->
<!DOCTYPE svg PUBLIC "-//W3C//DTD SVG 1.1//EN" "http://www.w3.org/Graphics/SVG/1.1/DTD/svg11.dtd">
<svg version="1.1" id="Layer_1" xmlns="http://www.w3.org/2000/svg" xmlns:xlink="http://www.w3.org/1999/xlink" x="0px" y="0px"
	 viewBox="0 0 450 50" enable-background="new 0 0 450 50" xml:space="preserve">
<g>
	<rect fill="none" width="50" height="50"/>
	<rect x="50" fill="none" width="50" height="50"/>
	<rect x="100" fill="none" width="50" height="50"/>
	<rect x="150" fill="none" width="50" height="50"/>
	<rect x="200" fill="none" width="50" height="50"/>
	<rect x="250" fill="none" width="50" height="50"/>
	<rect x="300" fill="none" width="50" height="50"/>
	<rect x="350" fill="none" width="50" height="50"/>
	<rect x="400" fill="none" width="50" height="50"/>
	<g>
		<path fill="#005058" d="M28.6,12l-8.9,5c0,0-1.5,0.9-0.8,2.8c0.8,1.9,2.5,1,2.5,1l6-3c0,0,1.5-0.8,2.8,0.6
			c1.2,1.4,7.5,7.3,7.5,7.3s0.8,1.2,3.6,0.8l2.7-0.5V14.9L38.6,16c0,0-1.5,0.3-2.7-0.6c-1.1-0.9-3.7-3.2-3.7-3.2S30.7,10.6,28.6,12"
			/>
		<path fill="#005058" d="M23.6,12.8l-5.1,2.9c0,0-2.8,2.1-1,5.2c1.8,3.1,4.5,1.5,4.5,1.5l4.1-1.7c0,0,1.8-0.7,2.8,0.6
			c1.1,1.3,6.9,6.7,6.9,6.7s1.3,1.1,0.1,2.4c-1.2,1.3-2.1,0-2.2,0c0,0-2.5-2.5-2.5-2.5s-1.1-0.8-0.5,0.4c0.6,1.1,2.3,2.5,2.3,2.6
			c0,0.1,1,1.4,0,2.4c-1,0.9-2.1-0.1-2.1-0.1l-2.6-2.8c0,0-1.5-0.9-0.6,0.4c0.9,1.3,2.4,2.5,2.4,2.5s0.8,1.1-0.2,2.2
			c-1,1-2.2-0.3-2.2-0.3l-2.5-2.5c0,0-1.1-0.7-0.5,0.4c0.5,1.1,2.4,2.6,2.4,2.6s0.4,0.8-0.4,1.7c-0.8,0.8-1.7,0.4-1.7,0.4l-1.3-1.1
			c0,0,0.5-3.8-2.7-4.6c0,0-1-2.5-2.4-2.6c0,0-1.3-2.4-2.4-2.5c0,0-3.8-5.9-7.9,0.1l-2-0.8l0-12.8c0,0,4.3,1.5,4.3,1.5
			s1.3,0.8,2.9-0.3C15,13.7,20.3,9.7,23.6,12.8"/>
		<path fill="#005058" d="M11.6,26.2c0,0-2.7,1.4-2,3.3c0.6,1.9,2.7,0.8,2.7,0.8S11,34.2,14.6,33c0,0-1.4,4,2.8,2.5
			c0,0-1.8,4.8,3.1,2.5c0,0,2.2-1.9,0.3-3.4c0,0-1-0.8-1.9-0.4c-0.9,0.4,1.4-3.1-2.4-2.8c0,0,0.7-3.4-2.5-2.5
			C14,28.9,14.8,25.5,11.6,26.2"/>
	</g>
	<path fill="#005058" d="M438,16.9l-3,6.7c-0.8,1.9-2.1,3.3-4.2,3.6c-0.7,0.1-1.3,0-2,0l3.8,10.8L412,33.4l1.2-5.3l10.4,2.4
		l-7.3-18.6l7.5,1.7l3.4,9.6c0.8,0.2,1.3-0.4,1.6-1.1l2.9-6.7L438,16.9z"/>
	<path fill="#005058" d="M388.5,16.9H361v-4.3h27.5V16.9z M361.5,18.3h3.2v3.6h-3.2V18.3z M361.5,23h3.2v3.6h-3.2V23z M361.5,27.7
		h3.2v3.6h-3.2V27.7z M361.5,32.5h3.2v3.6h-3.2V32.5z M365.4,18.3h3.2v3.6h-3.2V18.3z M365.4,23h3.2v3.6h-3.2V23z M365.4,27.7h3.2
		v3.6h-3.2V27.7z M365.4,32.5h3.2v3.6h-3.2V32.5z M369.5,18.3h3.2v3.6h-3.2V18.3z M369.5,23h3.2v3.6h-3.2V23z M369.5,27.7h3.2v3.6
		h-3.2V27.7z M369.5,32.5h3.2v3.6h-3.2V32.5z M373.5,18.3h3.2v3.6h-3.2V18.3z M373.5,23h3.2v3.6h-3.2V23z M373.5,27.7h3.2v3.6h-3.2
		V27.7z M373.5,32.5h3.2v3.6h-3.2V32.5z M377.4,18.3h3.2v3.6h-3.2V18.3z M377.4,23h3.2v3.6h-3.2V23z M377.4,27.7h3.2v3.6h-3.2V27.7z
		 M377.4,32.5h3.2v3.6h-3.2V32.5z M381.4,18.3h3.2v3.6h-3.2V18.3z M381.4,23h3.2v3.6h-3.2V23z M381.4,27.7h3.2v3.6h-3.2V27.7z
		 M381.4,32.5h3.2v3.6h-3.2V32.5z M385.1,18.3h3.2v3.6h-3.2V18.3z M385.1,23h3.2v3.6h-3.2V23z M385.1,27.7h3.2v3.6h-3.2V27.7z
		 M385.1,32.5h3.2v3.6h-3.2V32.5z M389.6,12h-29.2V38h29.2V12z"/>
	<g>
		<path fill="#005058" d="M331.1,11h-4.4h-3.5h-4.4c0,0-5.5,6.2,0.2,18.5c0,0,1.1,2.1,2.9,3.1c1.8,1,0.5,4.8-1.5,4
			c-2-0.8-4.5,2.3,0.9,2.3c1.1,0,1.9,0,2.6,0c0.2,0,0.6,0,1,0h0h0c0.4,0,0.8,0,1,0c0.7,0,1.5,0,2.6,0c5.4-0.1,2.9-3.1,0.9-2.3
			c-2,0.8-3.3-3-1.5-4c1.8-1,2.9-3.1,2.9-3.1C336.6,17.2,331.1,11,331.1,11"/>
		<path fill="none" stroke="#005058" stroke-width="1.004" stroke-linecap="round" d="M318.4,15.2c0,0-9.7,7-6.6-0.6
			c0,0-0.1-2.4-1.7,0.1c-1.7,2.4-0.6,13.9,9.5,18c0,0,2.3,2.2,0.2,2.3c-2.1,0.1-2.6-0.3-2.6-0.3s-1.5,0.7-0.1,1.8"/>
		<path fill="none" stroke="#005058" stroke-width="1.004" stroke-linecap="round" d="M331.6,15.2c0,0,9.7,7,6.6-0.6
			c0,0,0.1-2.4,1.7,0.1c1.7,2.4,0.6,13.9-9.5,18c0,0-2.3,2.2-0.2,2.3c2.1,0.1,2.6-0.3,2.6-0.3s1.5,0.7,0.1,1.8"/>
	</g>
	<path fill="#005058" d="M262.6,34.4h4.4V19h4.8c0.9,0,1.7,0.1,2.3,0.2c0.6,0.2,1.1,0.4,1.4,0.8c0.4,0.4,0.6,0.9,0.7,1.5
		c0.1,0.6,0.2,1.3,0.2,2.3v3.8h4.2v-3.8c0-0.7,0-1.3,0-1.8c0-0.5-0.1-1-0.2-1.7c-0.1-0.6-0.3-1.2-0.5-1.6c-0.2-0.4-0.6-0.8-1-1.3
		c-0.4-0.4-1-0.8-1.6-1c-1.4-0.6-3.3-0.9-5.5-0.9h-9.2V34.4z M283.2,15.6v7.5c0,2.2-0.6,4-1.7,5.5c-0.6,0.7-1.3,1.3-2.2,1.7
		c-0.9,0.4-1.9,0.6-3,0.6h-2.4v-8.6h-4.4v12h6.8c1.2,0,2.4-0.1,3.4-0.4c1-0.3,1.9-0.6,2.7-1c0.7-0.4,1.4-0.9,2-1.6
		c0.6-0.6,1.1-1.2,1.4-1.9c1-1.9,1.5-4,1.5-6.4v-7.5H283.2z"/>
	<g>
		<path fill="#005058" d="M161.8,34.4L160,15.6h1.6l1.1,12.9l1.4-12.9h1.8l1.3,13.1l1.2-13.1h1.5l-1.8,18.7h-1.6l-1.5-14l-1.5,14
			H161.8z"/>
		<path fill="#005058" d="M171.8,34.4L170,15.6h1.6l1.1,12.9l1.4-12.9h1.8l1.3,13.1l1.2-13.1h1.5l-1.8,18.7h-1.6l-1.5-14l-1.5,14
			H171.8z"/>
		<path fill="#005058" d="M181.8,34.4L180,15.6h1.6l1.1,12.9l1.4-12.9h1.8l1.3,13.1l1.2-13.1h1.5l-1.8,18.7h-1.6l-1.5-14l-1.5,14
			H181.8z"/>
	</g>
	<g>
		<g>
			<path fill="#005058" d="M130.9,40.1c-0.9,0-1.6-0.7-1.6-1.6V15.8c0-0.9,0.7-1.6,1.6-1.6s1.6,0.7,1.6,1.6v22.6
				C132.5,39.4,131.8,40.1,130.9,40.1z"/>
		</g>
		<g>
			<path fill="#005058" d="M120.4,40.1c-0.9,0-1.6-0.7-1.6-1.6v-18c0-0.9,0.7-1.6,1.6-1.6s1.6,0.7,1.6,1.6v18
				C122.1,39.4,121.3,40.1,120.4,40.1z"/>
		</g>
		<g>
			<path fill="#005058" d="M130.8,29.6c1.1,0,2-4.4,2-9.8s-0.9-9.8-2-9.8s-2,4.4-2,9.8S129.6,29.6,130.8,29.6"/>
		</g>
		<g>
			<path fill="#005058" d="M118,22.9c0.4,0,0.8-2.9,0.8-6.5c0-3.6-0.3-6.5-0.8-6.5c-0.4,0-0.8,2.9-0.8,6.5
				C117.2,20,117.6,22.9,118,22.9"/>
		</g>
		<g>
			<path fill="#005058" d="M120.5,22.9c0.4,0,0.8-2.9,0.8-6.5c0-3.6-0.3-6.5-0.8-6.5c-0.4,0-0.8,2.9-0.8,6.5
				C119.7,20,120,22.9,120.5,22.9"/>
		</g>
		<g>
			<path fill="#005058" d="M122.9,22.9c0.4,0,0.8-2.9,0.8-6.5c0-3.6-0.3-6.5-0.8-6.5c-0.4,0-0.8,2.9-0.8,6.5
				C122.1,20,122.5,22.9,122.9,22.9"/>
		</g>
		<g>
			<path fill="#005058" d="M117.2,17.7c0,0-0.3,7,2.7,7h1.1c0,0,2.2-0.1,2.5-2.7c0.2-2.1,0.2-4.1,0.2-4.1"/>
		</g>
	</g>
	<g>
		<rect x="59.4" y="11.3" fill="#005058" width="31.2" height="14.2"/>
		<rect x="65.3" y="18.4" fill="#005058" width="19.4" height="13.2"/>
		<g>
			<path fill="#005058" d="M75,38.1c5,0,9.1-2.9,9.1-6.5c0-3.6-4.1-6.5-9.1-6.5c-5,0-9.1,2.9-9.1,6.5C65.9,35.2,70,38.1,75,38.1"/>
		</g>
		<g>
			<path fill="#005058" d="M75,38.7c-5.4,0-9.7-3.2-9.7-7.1c0-3.9,4.4-7.1,9.7-7.1s9.7,3.2,9.7,7.1C84.7,35.5,80.4,38.7,75,38.7z
				 M75,25.7c-4.6,0-8.4,2.6-8.4,5.9c0,3.2,3.8,5.9,8.4,5.9c4.6,0,8.4-2.6,8.4-5.9C83.4,28.3,79.6,25.7,75,25.7z"/>
		</g>
		<line fill="none" stroke="#005058" stroke-width="0.612" x1="90" y1="16.8" x2="90" y2="36.8"/>
		<line fill="none" stroke="#005058" stroke-width="0.612" x1="88.3" y1="16.8" x2="88.3" y2="36.8"/>
	</g>
	<g>
		<path fill="#005058" d="M237.4,23.7c0,1.8-1.8,1.8-1.8,1.8h-4.2c-1.8,0-1.8-1.8-1.8-1.8V18c0-1.8,1.8-1.8,1.8-1.8h4.2
			c1.8,0,1.8,1.8,1.8,1.8V23.7z M229,23.7c0,1.8-1.8,1.8-1.8,1.8H223c-1.8,0-1.8-1.8-1.8-1.8V18c0-1.8,1.8-1.8,1.8-1.8h4.2
			c1.8,0,1.8,1.8,1.8,1.8V23.7z M220.8,23.7c0,1.8-1.8,1.8-1.8,1.8h-4.2c-1.8,0-1.8-1.8-1.8-1.8V18c0-1.8,1.8-1.8,1.8-1.8h4.2
			c1.8,0,1.8,1.8,1.8,1.8V23.7z M240.7,16.3c-0.6-0.5-1.4-0.9-2.6-0.9h-26.2c0,0-1.9,0-3,1.3c0.5-0.4,1.1-0.5,1.1-0.5h0.8
			c1.6,0,1.6,1.6,1.6,1.6v6.1c0,1.6-1.6,1.6-1.6,1.6h-0.8c-1.6,0-1.6-1.6-1.6-1.6v-6.1c0-0.3,0.1-0.5,0.1-0.7
			c-0.3,0.5-0.5,1.2-0.5,2v9.8c0,0,0,3.3,3.1,3.7c0-0.1,0-0.2,0-0.3c0-2.1,1.7-3.8,3.8-3.8c2.1,0,3.8,1.7,3.8,3.8c0,0.1,0,0.3,0,0.4
			h12c0-0.1,0-0.3,0-0.4c0-2.1,1.7-3.8,3.8-3.8c2.1,0,3.8,1.7,3.8,3.8c0,0.1,0,0.3,0,0.4h0c0,0,3.8,0,3.8-3.8v-3.4H240
			c-1.8,0-1.8-1.8-1.8-1.8V18c0-1.8,1.8-1.8,1.8-1.8H240.7z"/>
		<circle fill="none" stroke="#005058" stroke-width="1.576" cx="214.9" cy="32.3" r="2.3"/>
		<circle fill="none" stroke="#005058" stroke-width="1.576" cx="234.3" cy="32.3" r="2.3"/>
	</g>
</g>
</svg>
