<?xml version="1.0" encoding="utf-8"?>
<!-- Generator: Adobe Illustrator 18.0.0, SVG Export Plug-In . SVG Version: 6.00 Build 0)  -->
<!DOCTYPE svg PUBLIC "-//W3C//DTD SVG 1.1//EN" "http://www.w3.org/Graphics/SVG/1.1/DTD/svg11.dtd">
<svg version="1.1" xmlns="http://www.w3.org/2000/svg" xmlns:xlink="http://www.w3.org/1999/xlink" x="0px" y="0px"
	 viewBox="0 0 750.1 281.2" enable-background="new 0 0 750.1 281.2" xml:space="preserve">
<g id="Layer_1">
</g>
<g id="Layer_2">
	<g>
		<path fill="none" stroke="#FFFFFF" stroke-width="4.796" stroke-linecap="round" d="M273.4,103.7c-2.4-6.1-2.2-8.2-1.9-12.4
			c0.3-4.2,2.2-6.6-3.3-12.1c-5.5-5.5-12.8-3.1-12.9-12c-0.1-8.9,11.3-12.6,6-16c-5.3-3.4-11.3-7.2-11.7-11.5
			c-0.5-4.3,1.3-16-8-14.2c-9.2,1.8-10.8-13.5-21.2-6.7c0,0-4.1,1.4-4.4,5.2c-0.3,3.8-11.5-4.7-15.7-1.2c-4.2,3.5-7,3.7-8.1,2.3
			c-1.1-1.4-4.3-20.2-14.7-18.5c-10.4,1.7-12.4,7.1-14.2,4.8C161.6,9,161.6-1,153.3,3.6c-8.3,4.6-11.3,8.6-18.6,10.1
			c-7.2,1.5-11.7,3.3-11.8,8.8c0,5.5,9.5,15.1,7.5,19.6c-1.9,4.5,4.1,12.6-5.8,8.8c-10-3.7-22.1-5.5-23.8-3.1
			c-1.8,2.4-6.4,1.2-10.2,4.7C86.8,56,72.2,71.3,73.5,79.9c1.3,8.6-0.7,8.8,1.5,15.8c2.2,6.9,0.4,9.8,3.2,14.2
			c2.8,4.5-0.1,16.5,9.2,18.5c9.3,2,16.8,12.3,19.9,2.8c3.1-9.5,6.5-2.5,8.3,0.2c1.8,2.7,4.7,0.5,11.6-2.2c6.9-2.7-1.5,3.8,2.2,7.5
			c3.7,3.7,6.7,0.5,11.8-4.1c5.1-4.7,3.7-1.4,9.9-4.7c6.2-3.3,5.3-6.8,9.7-8.1c4.4-1.3,4.6-8.1,9.4-4.3c4.2,3.2,10.3,14.8,8.9,27.7
			c-9,1-17.4,3.6-24.9,7.5c-3.8,2-8.4,4.4-13.2,6.9c-1.2-1-2.5-2-3.8-3c-39.8-32-69-19.2-84-9c-15,10.2-32.6,25.7-32.6,25.7
			c-21.4,16.9-18,16.9-18,16.9l181.2-1.6c0,0,0-0.5,0.1-1.1l78.1-0.7c0,0,9.5,7-18.7-19.2c-12.5-11.6-26.6-18.4-40.5-21.2
			c0.1-4,0.5-7.7,1.1-10.6c0,0-0.7-5.9,3.5-10.2c4.2-4.3,2.4-0.2,6.9-1.6c4.5-1.3,6.1,2.5,10.7-0.1c4.5-2.5,6.9,8.2,13.8,5.4
			c6.9-2.8,4.6-7.7,8.1-7.8c3.6-0.1,8,3.8,11.4,0.2c3.4-3.6,2.5-1.2,8.6-4.1C273.1,112.5,275.8,109.8,273.4,103.7z"/>
		<path fill="#004F57" d="M19.3,170.3c0,0,17.7-15.5,32.6-25.7c15-10.2,44.2-22.9,84,9c39.8,32,45.9,24.1,46.6,24.1
			c0.7,0,0,7.8,0,7.8L1.3,187.2C1.3,187.2-2.1,187.2,19.3,170.3"/>
		<path fill="none" stroke="#FFFFFF" stroke-width="1.2" d="M19.3,170.3c0,0,17.7-15.5,32.6-25.7c15-10.2,44.2-22.9,84,9
			c39.8,32,45.9,24.1,46.6,24.1c0.7,0,0,7.8,0,7.8L1.3,187.2C1.3,187.2-2.1,187.2,19.3,170.3z"/>
		<path fill="#A71F36" d="M273.8,104c-2.4-6.1-2.2-8.2-1.9-12.4c0.3-4.2,2.2-6.6-3.3-12.1c-5.5-5.5-12.8-3.1-12.9-12
			c-0.1-8.9,11.3-12.6,6-16c-5.3-3.4-11.3-7.2-11.7-11.5c-0.5-4.3,1.3-16-8-14.2s-10.8-13.5-21.2-6.7c0,0-4.1,1.4-4.4,5.2
			c-0.3,3.8-11.5-4.7-15.7-1.2c-4.2,3.5-7,3.7-8.1,2.3c-1.1-1.4-4.3-20.2-14.7-18.5c-10.4,1.7-12.4,7.1-14.2,4.8
			c-1.8-2.3-1.8-12.3-10.1-7.7c-8.3,4.6-11.3,8.6-18.6,10.1c-7.2,1.5-11.7,3.3-11.8,8.8c0,5.5,9.5,15.1,7.5,19.6
			c-1.9,4.5,4.1,12.6-5.8,8.8c-10-3.7-22.1-5.5-23.8-3.1c-1.8,2.4-6.4,1.2-10.2,4.7c-3.8,3.5-18.5,18.8-17.2,27.4
			c1.3,8.6-0.7,8.8,1.5,15.8c2.2,6.9,0.4,9.8,3.2,14.2c2.8,4.5-0.1,16.5,9.2,18.5c9.3,2,16.8,12.3,19.9,2.8c3.1-9.5,6.5-2.4,8.3,0.2
			c1.8,2.7,4.7,0.5,11.6-2.2c6.9-2.7-1.5,3.8,2.2,7.5c3.7,3.7,6.7,0.5,11.8-4.1c5.1-4.7,3.7-1.4,9.9-4.7c6.2-3.3,5.3-6.8,9.7-8.1
			c4.4-1.3,4.6-8.1,9.4-4.3c4.2,3.2,10.3,14.8,8.9,27.7c-9,1-17.4,3.6-24.9,7.5c-22.8,12-68.7,36-69.1,35.3s-0.9,0.4-1,0.4l79.7-0.8
			l0,0l2.5,0l95.5-0.9c0,0,9.5,7-18.7-19.2c-12.5-11.6-26.6-18.4-40.5-21.2c0.1-4,0.5-7.7,1.1-10.6c0,0-0.7-5.9,3.5-10.2
			c4.2-4.3,2.4-0.2,6.9-1.6c4.4-1.3,6.1,2.5,10.7-0.1c4.5-2.5,6.9,8.2,13.8,5.4c6.9-2.8,4.6-7.7,8.1-7.8c3.6-0.1,8,3.8,11.4,0.2
			c3.4-3.6,2.5-1.2,8.6-4.1C273.5,112.8,276.2,110.1,273.8,104"/>
		<path fill="none" stroke="#FFFFFF" stroke-width="1.2" d="M273.8,104c-2.4-6.1-2.2-8.2-1.9-12.4c0.3-4.2,2.2-6.6-3.3-12.1
			c-5.5-5.5-12.8-3.1-12.9-12c-0.1-8.9,11.3-12.6,6-16c-5.3-3.4-11.3-7.2-11.7-11.5c-0.5-4.3,1.3-16-8-14.2s-10.8-13.5-21.2-6.7
			c0,0-4.1,1.4-4.4,5.2c-0.3,3.8-11.5-4.7-15.7-1.2c-4.2,3.5-7,3.7-8.1,2.3c-1.1-1.4-4.3-20.2-14.7-18.5
			c-10.4,1.7-12.4,7.1-14.2,4.8c-1.8-2.3-1.8-12.3-10.1-7.7c-8.3,4.6-11.3,8.6-18.6,10.1c-7.2,1.5-11.7,3.3-11.8,8.8
			c0,5.5,9.5,15.1,7.5,19.6c-1.9,4.5,4.1,12.6-5.8,8.8c-10-3.7-22.1-5.5-23.8-3.1c-1.8,2.4-6.4,1.2-10.2,4.7
			c-3.8,3.5-18.5,18.8-17.2,27.4c1.3,8.6-0.7,8.8,1.5,15.8c2.2,6.9,0.4,9.8,3.2,14.2c2.8,4.5-0.1,16.5,9.2,18.5
			c9.3,2,16.8,12.3,19.9,2.8c3.1-9.5,6.5-2.4,8.3,0.2c1.8,2.7,4.7,0.5,11.6-2.2c6.9-2.7-1.5,3.8,2.2,7.5c3.7,3.7,6.7,0.5,11.8-4.1
			c5.1-4.7,3.7-1.4,9.9-4.7c6.2-3.3,5.3-6.8,9.7-8.1c4.4-1.3,4.6-8.1,9.4-4.3c4.2,3.2,10.3,14.8,8.9,27.7c-9,1-17.4,3.6-24.9,7.5
			c-22.8,12-68.7,36-69.1,35.3s-0.9,0.4-1,0.4l79.7-0.8l0,0l2.5,0l95.5-0.9c0,0,9.5,7-18.7-19.2c-12.5-11.6-26.6-18.4-40.5-21.2
			c0.1-4,0.5-7.7,1.1-10.6c0,0-0.7-5.9,3.5-10.2c4.2-4.3,2.4-0.2,6.9-1.6c4.4-1.3,6.1,2.5,10.7-0.1c4.5-2.5,6.9,8.2,13.8,5.4
			c6.9-2.8,4.6-7.7,8.1-7.8c3.6-0.1,8,3.8,11.4,0.2c3.4-3.6,2.5-1.2,8.6-4.1C273.5,112.8,276.2,110.1,273.8,104z"/>
		<path fill="none" stroke="#FFFFFF" stroke-width="1.2" stroke-miterlimit="10" d="M6.5,188.2c0.5,0,48.3-21.4,102-8.7
			c0,0,12.6,3.9,26.2,7.6c0,0,34.3-15.8,63.2-11.1c28.9,4.7,61.2,10,61.2,10 M0.9,187.2c0.5,0,53.9-24.3,107.6-11.5
			c0,0,12.6,3.9,26.2,7.6c0,0,34.3-15.8,63.2-11.1c28.9,4.7,64.2,11.9,64.2,11.9 M2,184.8c0.5,0,52.9-27.7,106.6-14.9
			c0,0,12.6,3.9,26.2,7.7c0,0,34.3-15.8,63.2-11.1c28.9,4.7,63,15.7,63,15.7 M9.3,178.6c0.5,0,45.6-26.5,99.3-13.8
			c0,0,12.6,3.9,26.2,7.6c0,0,34.3-15.8,63.2-11.1c28.9,4.7,56.8,14.9,56.8,14.9"/>
		<path fill="#A71F36" d="M71.5,202.9L71.5,202.9c0,6-2.4,10.4-7.2,13.3l4.7,5.7c1.2,1.4,1.8,3,1.8,4.9c0,3.5-1.3,5.2-4,5.2H43.6
			c-0.1-1-0.1-2.2-0.1-3.6c0-2.1,0-3.5,0.1-4.1H59l0.2-0.5l-0.1-0.1l-7-8c-5.3-6-8.8-11.4-10.6-16.3c-0.2-0.6-0.1-0.9,0.4-0.9h10.2
			c1.6,3.7,3.9,7.5,6.8,11.3c0.5,0.7,0.9,1,1.3,1c0.7,0,1-1.6,1-4.8v-7.5h10.2V202.9z M39.5,231.9H29.3v-33.5h10.3V231.9z M25.2,218
			c0,4.5,0.4,9.1,1.2,13.9h-9.7l-0.5-8.6l-0.3-0.3l-0.5,0.3c-0.4,1.6-0.8,2.7-1.1,3.5c-0.5,1.3-1.1,2.4-1.7,3.2
			c-1.3,1.7-3.1,2.6-5.5,2.6c-0.8,0-1.7-0.3-2.5-0.7c0.2-3.9,0.6-6.7,1-8.4l1.5,0.3c2.6,0,4.7-1,6.4-3.1c1.2-1.5,1.7-3.2,1.7-5.2
			v-4.9c0-1.9-0.5-3.2-1.6-3.9c-0.6-0.5-1.5-0.7-2.7-0.7H6.3c-0.3-2-0.3-4.6,0-7.7h9c3.5,0,6,0.9,7.6,2.6c1.6,1.7,2.4,4.5,2.4,8.4
			V218z"/>
		<path fill="#A71F36" d="M746.8,215c0,5.7-1.4,10-4.1,13.2c-2.3,2.8-5.3,4.1-8.8,4.1c-3.1,0-5-0.2-5.8-0.5c0.1-3.3,0.3-5.8,0.8-7.7
			c0.4,0.2,1.2,0.4,2.3,0.4c1.5,0,2.8-0.9,3.9-2.6c1.1-1.7,1.6-4,1.6-6.7c0-2.9-0.5-5.3-1.5-6.9c-0.9-1.5-2.1-2.3-3.4-2.3
			c-1.5,0-2.7,0.6-3.6,2c-1,1.5-1.6,4.3-2,8.2l-1.6,15.8h-9.9l1.4-15.3c0.5-5.4,2.3-8.9,5.3-10.6h-6.3c-0.2-2.7-0.2-5.2,0-7.7h17.4
			c4.6,0,8.1,1.5,10.5,4.4C745.6,205.7,746.8,209.8,746.8,215 M711.1,215.1c-1.4,0.9-4.8,1.8-10.1,2.7v-19.5h10.1V215.1z
			 M697.4,215.1c-1.4,0.9-4.8,1.8-10.1,2.7v-19.5h10.1V215.1z M672.1,223.5c1-1.5,1.6-4.2,1.6-7.9c0-6.5-1.8-9.7-5.4-9.7
			c-1.8,0-3,0.6-3.7,1.8c-0.8,1.4-1.2,4-1.2,7.9c0,3.6,0.4,6.1,1.2,7.6c0.8,1.5,2,2.2,3.7,2.2C670,225.3,671.3,224.7,672.1,223.5
			 M680.1,202.2c2.5,2.7,3.7,7.1,3.7,13c0,5.9-1.4,10.4-4.3,13.6c-2.8,3-6.6,4.5-11.5,4.5c-4.5,0-8.1-1.2-10.6-3.7
			c-2.7-2.6-4-6.4-4-11.5c0-5.5,1.4-9.5,4.1-11.9h-4.3c-0.3-2.3-0.3-4.9-0.1-7.7h16.5C674.2,198.4,677.8,199.7,680.1,202.2
			 M649.3,231.9h-10v-33.5h10V231.9z M635.7,198.4c0.2,0.9,0.2,2.1,0.2,3.8c0,1.7-0.1,3-0.3,3.9h-3.4v25.9h-10v-25.9h-12.1
			c-0.2-1.3-0.3-2.7-0.3-4c0-1.3,0.1-2.5,0.3-3.7H635.7z M607.3,241.7h-10.1v-43.3h10.1V241.7z M578.6,214.2
			c0,9.8-3.8,15.5-11.5,17.3c-2.4,0.6-5.3,0.8-8.8,0.8c-3.7,0-6.8-0.4-9.1-1c-5.8-1.7-8.6-6.1-8.6-13.1v-19.8h9.7v15.1
			c0,1.1,0.4,1.7,1.1,1.7c1,0,1.9-0.7,2.5-2.1c0.7-1.4,1-3.3,1-5.8v-8.9h9.3v8.7c0,4.3-1.1,7.7-3.4,10.1c-2,2.2-4.7,3.2-7.9,3.2
			c-0.5,0-1.3-0.1-2.3-0.3c0.3,1.6,0.9,2.8,2,3.5c0.9,0.7,2.9,1,5.8,1.1c2.8,0,4.9-0.2,6.2-0.8c2.7-1.2,4.1-3.9,4.1-8v-17.5h9.7
			V214.2z M525.9,198.4c7.6,0,11.4,4.1,11.4,12.4c0,4.2-1,7.9-2.9,11.2c-1.7,2.8-4,5.2-6.9,7.1c-2.9,1.9-6.1,3-9.5,3.3
			c-0.3-1.3-0.3-3.9,0-7.9c3.5-1,6-2.8,7.5-5.4c1.1-1.8,1.7-4,1.7-6.5c0-4.3-1.9-6.5-5.7-6.5h-7c-1.1,0-1.6-0.7-1.6-2v-14.2h10v7.9
			l0.6,0.6H525.9z M496,215c0,5.7-1.4,10-4.1,13.2c-2.3,2.8-5.3,4.1-8.8,4.1c-3.1,0-5-0.2-5.8-0.5c0.1-3.3,0.3-5.8,0.8-7.7
			c0.4,0.2,1.2,0.4,2.3,0.4c1.5,0,2.8-0.9,3.9-2.6s1.6-4,1.6-6.7c0-2.9-0.5-5.3-1.5-6.9c-0.9-1.5-2.1-2.3-3.4-2.3
			c-1.5,0-2.7,0.6-3.6,2c-1,1.5-1.6,4.3-2,8.2l-1.6,15.8h-9.9l1.4-15.3c0.5-5.4,2.3-8.9,5.3-10.6h-6.3c-0.2-2.7-0.2-5.2,0-7.7h17.4
			c4.6,0,8.1,1.5,10.5,4.4C494.8,205.7,496,209.8,496,215 M446.1,198.4c9.9,0,14.8,5.6,14.8,16.7c0,5.2-1.1,9.2-3.4,12.1
			c-2.6,3.2-6.3,4.7-11.4,4.7h-8.3c-0.2-2.5-0.2-5,0-7.7h5.7c2.6,0,4.5-0.8,5.7-2.3c1.1-1.4,1.6-3.7,1.6-6.8c0-6-2.4-9-7.3-9h-5.7
			c-0.2-1.5-0.2-4.1,0-7.7H446.1z M423.7,198.4c7.6,0,11.4,4.1,11.4,12.4c0,4.2-1,7.9-2.9,11.2c-1.7,2.8-4,5.2-6.9,7.1
			c-2.9,1.9-6.1,3-9.5,3.3c-0.3-1.3-0.3-3.9,0-7.9c3.5-1,6-2.8,7.5-5.4c1.1-1.8,1.7-4,1.7-6.5c0-4.3-1.9-6.5-5.7-6.5h-7
			c-1.1,0-1.6-0.7-1.6-2v-14.2h10v7.9l0.6,0.6H423.7z M397.4,198.4c7.6,0,11.4,4.1,11.4,12.4c0,4.2-1,7.9-2.9,11.2
			c-1.7,2.8-4,5.2-6.9,7.1c-2.9,1.9-6.1,3-9.5,3.3c-0.3-1.3-0.3-3.9,0-7.9c3.5-1,6-2.8,7.5-5.4c1.1-1.8,1.7-4,1.7-6.5
			c0-4.3-1.9-6.5-5.7-6.5h-7c-1.1,0-1.6-0.7-1.6-2v-14.2h10v7.9l0.6,0.6H397.4z M382,231.9h-10v-33.5h10V231.9z M368.2,231.9h-10.1
			v-21.2c0-3.1-1.2-4.6-3.6-4.6h-5.1v14.4c0,8.1-3.5,12.2-10.4,12.2c-1.7,0-3.1-0.3-4.1-0.9c0-4.5,0.1-7,0.3-7.8
			c0.4,0.3,1.2,0.4,2.3,0.4c1.4,0,2.1-1,2.1-2.9V200c0-1.1,0.5-1.6,1.4-1.6h15.9c4.2,0,7.1,0.9,8.9,2.8c1.8,1.9,2.7,5.1,2.7,9.6
			V231.9z M306.9,198.4c7.6,0,11.4,4.1,11.4,12.4c0,4.2-1,7.9-2.9,11.2c-1.7,2.8-4,5.2-6.9,7.1c-2.9,1.9-6.1,3-9.5,3.3
			c-0.3-1.3-0.3-3.9,0-7.9c3.5-1,6-2.8,7.5-5.4c1.1-1.8,1.7-4,1.7-6.5c0-4.3-1.9-6.5-5.7-6.5h-7c-1.1,0-1.6-0.7-1.6-2v-14.2h10v7.9
			l0.6,0.6H306.9z M291.4,215.1c-1.4,0.9-4.8,1.8-10.1,2.7v-19.5h10.1V215.1z M264.8,198.4c8.7,0,13.1,5.5,13.1,16.4
			c0,11.4-4.2,17.1-12.5,17.1h-16c-0.2-2.8-0.2-5.4,0-7.7h12.9c2.2,0,3.7-0.8,4.5-2.3c0.7-1.3,1-3.8,1-7.4c0-3.4-0.4-5.8-1.2-7
			c-0.8-1.3-2.2-1.9-4-1.9c-1.5,0-2.6,0.4-3.2,1.1c-0.6,0.8-0.9,2-0.9,3.8c0,1.5,0.4,2.9,1.4,4.1l-0.1,0.7c-1.1,0.9-2.6,1.8-4.4,2.7
			c-1.8,0.9-3.2,1.5-4.2,1.6c-0.6-0.6-1.2-1.5-1.7-2.7c-0.5-1.2-0.8-2.3-0.8-3.3c0-3.2,1.4-5.6,4.3-7.3l0.1-0.2l-0.2-0.2h-4.2
			c-0.2-1.5-0.2-4.1,0-7.7H264.8z M245.1,214.2c0,9.8-3.8,15.5-11.5,17.3c-2.4,0.6-5.3,0.8-8.8,0.8c-3.7,0-6.8-0.4-9.1-1
			c-5.8-1.7-8.6-6.1-8.6-13.1v-19.8h9.7v15.1c0,1.1,0.4,1.7,1.1,1.7c1,0,1.9-0.7,2.5-2.1c0.7-1.4,1-3.3,1-5.8v-8.9h9.3v8.7
			c0,4.3-1.1,7.7-3.4,10.1c-2,2.2-4.7,3.2-7.9,3.2c-0.5,0-1.3-0.1-2.3-0.3c0.3,1.6,0.9,2.8,2,3.5c0.9,0.7,2.9,1,5.8,1.1
			c2.8,0,4.9-0.2,6.2-0.8c2.7-1.2,4.1-3.9,4.1-8v-17.5h9.7V214.2z M203.3,215.1c-1.4,0.9-4.8,1.8-10.1,2.7v-19.5h10.1V215.1z
			 M190,204.1c0,3.4-0.7,6.2-2.1,8.4c-1.6,2.4-4.3,4.6-8.3,6.4c1.6,4,3.1,7.9,4.7,11.9c1.8,4.7,3.1,8.2,3.8,10.7h-9.9
			c-2.5-6.4-6.4-15.8-11.6-28.3l-6.1-13.9c-0.3-0.6-0.1-0.9,0.5-0.9h10l5.7,13c0.3,0.7,0.6,1,0.8,0.9c1.7-0.9,2.6-3,2.6-6.2v-7.7h10
			V204.1z M143.7,231.9h-10v-33.5h10V231.9z M111.4,231.9h-10.1v-17.7c0.7-0.5,2.1-1,4.3-1.6c2.2-0.6,4.1-0.9,5.7-0.9V231.9z
			 M129.9,231.9h-10v-19.5c0-2.3-0.4-3.9-1.2-4.9c-0.8-1-2.2-1.5-4.2-1.5h-13.2c-0.1-0.8-0.2-2.1-0.2-3.9c0-1.8,0.1-3,0.2-3.8h16.5
			c4.6,0,7.9,1.2,9.7,3.5c1.6,2.1,2.4,5.6,2.4,10.5V231.9z M97.6,231.9H87.6v-19.2c0-2.3-0.4-4-1.1-5c-0.7-1.1-2.1-1.6-4-1.6h-8.3
			c-0.1-0.8-0.2-2.2-0.2-4c0-1.8,0.1-3,0.2-3.8h11.6c4.5,0,7.7,1.2,9.5,3.5c1.6,2.1,2.4,5.6,2.4,10.5V231.9z"/>
		<rect x="224" y="254.3" fill="#004F57" width="14.9" height="14.4"/>
		<rect x="493.2" y="254.3" fill="#004F57" width="14.9" height="14.4"/>
		<path fill="#004F57" d="M747.7,273l0.2,0.5l-0.4,0.5h-4.8c-2.3-3.2-5.5-7.4-9.5-12.5c-0.7-0.8-1.2-1.1-1.6-1.1
			c-0.7,0-1.3,0.5-1.8,1.6c-0.6,1.2-0.8,2.8-0.8,4.9v7.1h-4.9v-4.4c0-5.6,2.1-9.5,6.3-11.7l-6.8-7.9l-0.3-0.6l0.5-0.3h5
			c2.3,2.9,5.4,6.7,9.2,11.3l0.8,0.5c1.7,0,2.5-2.1,2.5-6.3v-5.6h4.9v4.7c0,4.3-2,7.6-6,9.6C742.1,265.7,744.6,268.9,747.7,273
			 M710.6,249.1c6,0,9,2.8,9,8.5c0,4.8-1.7,8.8-5.1,12.2c-3,2.9-6.3,4.6-10,4.9c-0.1-0.3-0.2-0.9-0.2-1.6c0-0.7,0.1-1.2,0.2-1.6
			c6.5-1.8,9.8-6.3,9.8-13.4c0-3.8-2-5.8-6.1-5.8h-7.1c-0.8,0-1.3-0.1-1.5-0.3c-0.2-0.2-0.4-0.7-0.4-1.7v-8.7h5v6.8l0.4,0.6H710.6z
			 M695.8,274h-5.1v-24.9h5.1V274z M685.4,281.2h-5.1v-32.2h5.1V281.2z M661.9,261.6c0,5.7-2.3,9.5-6.9,11.4c-2,0.8-4.6,1.2-7.7,1.2
			c-3.6,0-6.4-0.6-8.4-1.9c-2.9-1.7-4.3-4.9-4.3-9.5v-13.8h5.1V264c0,0.6,0.3,0.8,1,0.7c3.3-0.7,5-3,5-7.1v-8.5h5v7.4
			c0,2.6-0.5,4.7-1.6,6.2c-1.7,2.6-4.6,4.1-8.7,4.5c0.5,1.2,1.1,2,1.7,2.5c1.4,0.9,3.1,1.3,5.2,1.3c2.5,0,4.4-0.3,5.9-1
			c2.5-1.2,3.8-3.8,3.8-7.7v-13.2h5V261.6z M630.7,270.8c0.1,0.6,0.1,1.1,0.1,1.4c0,0.4,0,1-0.1,1.8h-21.3c-0.1-0.7-0.1-1.2-0.1-1.5
			c0-0.2,0-0.8,0.1-1.7h8.3c2.4,0,4-0.9,4.8-2.6c0.6-1.3,0.9-3.6,0.9-6.8c0-3-0.5-5.2-1.4-6.6c-1.1-1.6-3-2.4-5.6-2.4h-6.7
			c-0.1-0.6-0.2-1.1-0.2-1.7c0,0.3,0-0.2,0.2-1.5h8.5c3.8,0,6.5,1,8.2,3c1.5,1.9,2.3,4.7,2.3,8.6c0,5-1.3,8.4-3.9,10.1H630.7z
			 M605.2,274h-5.1v-24.9h5.1V274z M595,274h-5.1v-16c0-3.8-1.8-5.7-5.4-5.7h-5.9v15.5c0,2.3-0.7,4-2.2,5.1
			c-1.2,0.9-2.7,1.4-4.6,1.4c-1,0-1.8-0.2-2.4-0.6c0-1.3,0.1-2.3,0.3-3c0.6,0.2,1,0.3,1.4,0.3c0.7,0,1.3-0.3,1.7-0.8
			c0.5-0.5,0.7-1.3,0.7-2.3v-18c0-0.6,0.4-0.9,1.1-0.9h11.7c5.8,0,8.6,2.8,8.6,8.3V274z"/>
		<g>
			<path fill="#004F57" d="M431.9,262c-1.3,0.7-3,1.2-5.1,1.6v-14.5h5.1V262z M421.6,274h-5v-15.3c0-2.2-0.5-3.8-1.4-4.8
				c-0.9-1-2.5-1.5-4.7-1.5h-6.9l-0.1-1.6c0-0.6,0-1.1,0.1-1.7h8.1c3.3,0,5.7,0.7,7.3,2c1.7,1.5,2.6,3.9,2.6,7.2V274z M399.1,274
				H394v-24.9h5.1V274z M388.9,261.6c0,5.7-2.3,9.5-6.9,11.4c-2,0.8-4.5,1.2-7.7,1.2c-3.6,0-6.4-0.6-8.4-1.9
				c-2.9-1.7-4.3-4.9-4.3-9.5v-13.8h5.1V264c0,0.6,0.3,0.8,1,0.7c3.3-0.7,5-3,5-7.1v-8.5h5v7.4c0,2.6-0.5,4.7-1.6,6.2
				c-1.7,2.6-4.6,4.1-8.7,4.5c0.5,1.2,1.1,2,1.7,2.5c1.4,0.9,3.1,1.3,5.2,1.3c2.5,0,4.4-0.3,5.9-1c2.5-1.2,3.8-3.8,3.8-7.7v-13.2h5
				V261.6z M347.9,249.1c6,0,9,2.8,9,8.5c0,4.8-1.7,8.8-5.1,12.2c-3,2.9-6.3,4.6-10,4.9c-0.1-0.3-0.2-0.9-0.2-1.6
				c0-0.7,0.1-1.2,0.2-1.6c6.5-1.8,9.8-6.3,9.8-13.4c0-3.8-2-5.8-6.1-5.8h-7.1c-0.8,0-1.3-0.1-1.5-0.3c-0.2-0.2-0.4-0.7-0.4-1.7
				v-8.7h5v6.8l0.4,0.6H347.9z M333.2,262c-1.3,0.7-3,1.2-5.1,1.6v-14.5h5.1V262z M317.9,270.8v-12.3c0-4.1-1.9-6.2-5.6-6.2h-7v18.5
				H317.9z M323,273c0,0.7-0.3,1-1,1h-20.9l-0.8-0.8V250c0-0.6,0.4-0.9,1.1-0.9h12.4c2.8,0,5,0.8,6.6,2.4c1.7,1.6,2.5,3.7,2.5,6.4
				V273z"/>
		</g>
		<path fill="#004F57" d="M162.8,262c0,3.9-1,7-3,9.1c-2,2.2-4.8,3.2-8.5,3.2c-1.5,0-2.8-0.1-4-0.4c0.1-1.2,0.3-2.3,0.6-3.1
			c0.7,0.3,1.7,0.4,3,0.4c4.5,0,6.8-3.1,6.8-9.2c0-6.5-2.2-9.8-6.6-9.8c-2.2,0-3.8,0.7-4.9,2.1c-1,1.4-1.8,4-2.4,7.9l-1.6,11.9h-5
			l1.7-11.5c0.4-2.8,0.9-5.1,1.7-6.6c0.7-1.6,1.8-2.8,3.2-3.6h-6.1c-0.1-0.9-0.1-1.3-0.1-1.5c0-0.4,0-1,0.1-1.8h14.3
			c3.4,0,6.1,1.1,8,3.3C161.8,254.5,162.8,257.7,162.8,262 M132.3,262.2c0,4.2,0.5,8.1,1.4,11.8h-4.8c-0.4-1.2-0.8-3.4-1.2-6.6
			c-2.1,4.7-4.8,7-8.3,7c-0.8,0-1.4-0.1-1.9-0.4c0.2-1.6,0.4-2.8,0.7-3.6l1,0.2c1.1,0,2.3-0.4,3.6-1.3c1.4-0.9,2.6-2.1,3.6-3.6
			c0.7-1.1,1-2.1,1-3.2V256c0-2.5-1.3-3.7-3.8-3.7h-4.2c-0.1-0.8-0.1-1.4-0.1-1.8c0-0.1,0-0.6,0.1-1.4h5.7c4.8,0,7.2,2.2,7.2,6.7
			V262.2z M114.4,249.8v0.7c0,0.3,0,0.9-0.1,1.8h-3.2V274h-5v-21.7H93.8c-0.1-0.6-0.1-1.2-0.1-1.9c0-0.1,0-0.6,0.1-1.4h20.6
			L114.4,249.8z M81.6,249.1c6,0,9,2.8,9,8.5c0,4.8-1.7,8.8-5.1,12.2c-3,2.9-6.3,4.6-10,4.9c-0.1-0.3-0.2-0.9-0.2-1.6
			c0-0.7,0.1-1.2,0.2-1.6c6.5-1.8,9.8-6.3,9.8-13.4c0-3.8-2-5.8-6.1-5.8h-7.1c-0.8,0-1.3-0.1-1.5-0.3c-0.2-0.2-0.4-0.7-0.4-1.7v-8.7
			h5v6.8l0.4,0.6H81.6z M53.7,261.9c0,3.9-1,6.9-3.1,9c-2.1,2.1-5.1,3.2-9.1,3.2H31c-0.1-1.4-0.1-2.4,0.1-3.2h6.1l-5-21.4l0.2-0.3
			h5.1c1.4,7,2.8,14.2,4.3,21.6c4.7,0,7-2.4,7-7.1v-14.5h5V261.9z M26.8,274h-5.1v-24.9h5.1V274z M17.7,249.1c0,0.9-0.5,2-1.3,3.2
			c-2.9,0-4.3,1.8-4.3,5.5c0,0.8,0.1,1.8,0.2,2.9l1.5,13.4H8.6l-1.2-12.6l0-1.3c0-3.8,1.3-6.4,3.9-7.7H4.7c-0.1-0.7-0.1-1.3-0.1-1.8
			c0-0.2,0-0.7,0.1-1.4H17.7z"/>
		<path fill="#004F57" d="M678.1,187.6H639v-72.6c2.6-2,8.2-4.1,16.9-6.5c8.7-2.4,16.1-3.5,22.2-3.5V187.6z M750.1,187.6h-39v-79.9
			c0-9.3-1.6-15.9-4.7-20c-3.1-4.1-8.5-6.1-16.2-6.1h-51.4c-0.4-3.4-0.7-8.7-0.7-16c0-7.3,0.2-12.4,0.7-15.4H703
			c18,0,30.5,4.8,37.7,14.4c6.3,8.6,9.4,23,9.4,43V187.6z M629.1,187.6h-39.1V109c0-9.4-1.4-16.3-4.3-20.6c-2.8-4.3-8-6.5-15.5-6.5
			h-32.1c-0.4-3.4-0.7-8.8-0.7-16.3c0-7.3,0.2-12.4,0.7-15.4H583c17.6,0,29.9,4.8,36.8,14.4c6.1,8.6,9.2,23,9.2,43V187.6z
			 M527.7,68.8L527.7,68.8c0,24.7-9.1,42.8-27.4,54.2l18,23.2c4.5,5.8,6.7,12.4,6.7,19.9c0,14.3-5,21.4-15,21.4h-88.4
			c-0.3-4-0.4-8.9-0.4-14.6c0-8.7,0.1-14.4,0.4-17h58.5c1.7,0,1.9-0.7,0.8-2.1l-0.2-0.3l-26.7-32.6c-20.1-24.4-33.5-46.7-40.2-66.9
			c-0.9-2.6-0.3-3.9,1.6-3.9h38.8c6.1,15.1,14.8,30.6,26,46.2c2,2.8,3.6,4.1,4.8,4.1c2.6,0,3.9-6.5,3.9-19.5V50.2h38.9V68.8z
			 M406.1,187.6h-39V50.2h39V187.6z M356.3,130.7c0,18.3,1.5,37.2,4.5,56.9h-37l-2.1-35c0-0.7-0.4-1.2-1.3-1.3
			c-0.9-0.2-1.5,0.3-1.8,1.3c-1.7,6.4-3,11.1-4.1,14.2c-2,5.3-4.1,9.8-6.5,13.2c-5,7.1-11.9,10.7-20.9,10.7c-3.1,0-6.4-1-9.6-3.1
			c0.9-15.9,2.2-27.3,3.8-34.2c1.8,0.7,3.6,1.1,5.6,1.1c9.9,0,17.9-4.2,24.2-12.6c4.4-6.1,6.6-13.2,6.6-21.4v-19.9
			c0-7.7-2-13-5.9-16.2c-2.3-1.9-5.7-2.8-10.1-2.8h-17.5c-1.2-8.2-1.2-18.7,0-31.4h34.2c13.1,0,22.8,3.5,28.8,10.6
			c6.1,7,9.1,18.6,9.1,34.6V130.7z"/>
		<g>
			<path fill="#A71F36" d="M724.3,41.9h-7V23.2c1.6-0.7,3.9-1.2,7-1.4V41.9z"/>
			<path fill="#A71F36" d="M746.5,41.9h-7V21.5c0-5.1-2.7-7.6-8.2-7.6h-14c-0.1-0.7-0.1-1.4-0.1-2c0-0.7,0-1.5,0.1-2.2h16.1
				c8.7,0,13.1,3.8,13.1,11.3V41.9z"/>
			<path fill="#A71F36" d="M711,26.3c0,5.1-1.4,9-4.2,11.8c-2.8,2.8-6.7,4.2-11.9,4.2c-2.1,0-4-0.2-5.5-0.6c0.1-1.6,0.4-2.9,0.8-4
				c1,0.4,2.4,0.6,4.1,0.6c6.3,0,9.4-4,9.4-11.9c0-8.4-3-12.6-9.1-12.6c-3.1,0-5.3,0.9-6.8,2.7c-1.4,1.8-2.5,5.2-3.3,10.2l-2.2,15.3
				h-6.9l2.3-14.8c0.5-3.7,1.3-6.5,2.3-8.6c1-2,2.5-3.6,4.5-4.6h-8.5c-0.1-1.1-0.1-1.7-0.1-1.9c0-0.5,0-1.3,0.1-2.3h19.9
				c4.7,0,8.4,1.4,11.1,4.2C709.7,16.7,711,20.8,711,26.3"/>
			<path fill="#A71F36" d="M653.8,9.7c11.2,0,16.8,5.3,16.8,15.9c0,5.3-1.5,9.4-4.5,12.2c-3,2.8-7,4.2-12.1,4.2h-9.7
				c-0.1-1-0.1-1.8-0.1-2.2c0-0.2,0-0.9,0.1-2h8c7.3,0,10.9-4.1,10.9-12.2c0-3.5-0.9-6.3-2.7-8.3c-2-2.2-4.8-3.3-8.5-3.3h-7.5
				c-0.1-0.7-0.2-1.5-0.2-2.3c0,0.4,0.1-0.3,0.2-2H653.8z"/>
			<path fill="#A71F36" d="M625.9,9.7c8.4,0,12.5,3.7,12.5,11c0,6.2-2.4,11.4-7.1,15.7c-4.1,3.8-8.7,5.9-13.9,6.4
				c-0.2-0.4-0.3-1.1-0.3-2c0-0.9,0.1-1.6,0.3-2.1c9.1-2.4,13.7-8.1,13.7-17.3c0-5-2.8-7.5-8.4-7.5h-9.8c-1.1,0-1.7-0.1-2.1-0.3
				c-0.3-0.2-0.5-1-0.5-2.2V0.2h7v8.8c0,0.5,0.2,0.7,0.6,0.7H625.9z"/>
			<path fill="#A71F36" d="M594,9.7c8.3,0,12.5,3.7,12.5,11c0,6.2-2.4,11.4-7.1,15.7c-4.1,3.8-8.7,5.9-13.9,6.4
				c-0.2-0.4-0.3-1.1-0.3-2c0-0.9,0.1-1.6,0.3-2.1c9.1-2.4,13.6-8.1,13.6-17.3c0-5-2.8-7.5-8.4-7.5H581c-1,0-1.7-0.1-2.1-0.3
				c-0.3-0.2-0.5-1-0.5-2.2V0.2h7v8.8c0,0.5,0.2,0.7,0.6,0.7H594z"/>
			<path fill="#A71F36" d="M551.7,41.9h-7V23.2c1.6-0.7,3.9-1.2,7-1.4V41.9z"/>
			<path fill="#A71F36" d="M573.9,41.9h-7V21.5c0-5.1-2.7-7.6-8.2-7.6h-14c-0.1-0.7-0.1-1.4-0.1-2c0-0.7,0-1.5,0.1-2.2h16.1
				c8.7,0,13.1,3.8,13.1,11.3V41.9z"/>
			<path fill="#A71F36" d="M497.1,41.9h-7V23.2c1.6-0.7,3.9-1.2,7-1.4V41.9z"/>
			<path fill="#A71F36" d="M519.3,41.9h-7V21.5c0-5.1-2.7-7.6-8.2-7.6h-14c-0.1-0.7-0.1-1.4-0.1-2c0-0.7,0-1.5,0.1-2.2h16.1
				c8.7,0,13.1,3.8,13.1,11.3V41.9z"/>
			<path fill="#A71F36" d="M484.6,40.6l0.3,0.7l-0.5,0.6h-6.7c-3.3-4.2-7.6-9.5-13.2-16.1c-0.9-1-1.7-1.5-2.3-1.5
				c-1,0-1.8,0.7-2.5,2.1c-0.8,1.5-1.2,3.6-1.2,6.3v9.2h-6.9v-5.7c0-7.2,2.9-12.2,8.8-15.2L451,10.7l-0.4-0.7c0-0.3,0.2-0.4,0.7-0.4
				h7c3.3,3.8,7.5,8.6,12.8,14.6c0.4,0.5,0.7,0.7,1.1,0.7c2.3,0,3.5-2.7,3.5-8.1V9.7h6.9v6c0,5.6-2.8,9.8-8.3,12.4
				C476.8,31.1,480.2,35.3,484.6,40.6"/>
			<path fill="#A71F36" d="M421.6,51.2h-7.1V23.1c2.4-1.4,4.7-2.1,7.1-2.1V51.2z"/>
			<path fill="#A71F36" d="M431.6,9.7c9.3,0,14,4.1,14,12.3c0,5.5-1.8,10.2-5.3,14.1c-3.6,3.9-7.9,6-13,6.3c-0.2-0.6-0.2-1.9,0-3.9
				c3.7-0.7,6.6-2.6,8.6-5.8c1.8-2.8,2.6-6.3,2.6-10.5c0-5.6-3.1-8.3-9.2-8.3H414c-0.1-0.9-0.2-1.5-0.2-2c0-0.8,0.1-1.6,0.2-2.3
				H431.6z"/>
			<path fill="#A71F36" d="M407.3,10.6v0.9c0,0.4,0,1.1-0.1,2.3h-4.5v28h-6.9v-28h-17.1c-0.1-0.8-0.2-1.6-0.2-2.4
				c0-0.2,0-0.8,0.1-1.8h28.7L407.3,10.6z"/>
			<path fill="#A71F36" d="M374.1,26.3c0,5.1-1.4,9-4.2,11.8c-2.8,2.8-6.7,4.2-11.9,4.2c-2.1,0-4-0.2-5.5-0.6c0.1-1.6,0.4-2.9,0.8-4
				c1,0.4,2.4,0.6,4.1,0.6c6.3,0,9.4-4,9.4-11.9c0-8.4-3-12.6-9.1-12.6c-3.1,0-5.3,0.9-6.8,2.7c-1.4,1.8-2.5,5.2-3.3,10.2l-2.2,15.3
				h-6.9l2.3-14.8c0.5-3.7,1.3-6.5,2.3-8.6c1-2,2.5-3.6,4.5-4.6h-8.5c-0.1-1.1-0.1-1.7-0.1-1.9c0-0.5,0-1.3,0.1-2.3H359
				c4.7,0,8.4,1.4,11.1,4.2C372.8,16.7,374.1,20.8,374.1,26.3"/>
			<path fill="#A71F36" d="M332.2,26.3c-1.8,0.9-4.2,1.6-7.1,2V9.7h7.1V26.3z"/>
			<path fill="#A71F36" d="M318,41.9h-7.1V21.2c0-4.9-2.5-7.3-7.5-7.3h-8.2V34c0,2.9-1,5.1-3,6.6c-1.7,1.2-3.8,1.8-6.4,1.8
				c-1.4,0-2.5-0.3-3.4-0.8c0-1.6,0.1-2.9,0.4-3.9c0.8,0.3,1.4,0.4,2,0.4c0.9,0,1.7-0.3,2.4-1c0.7-0.7,1-1.7,1-3V10.9
				c0-0.8,0.5-1.2,1.6-1.2H306c8,0,12,3.5,12,10.7V41.9z"/>
		</g>
	</g>
</g>
</svg>
